<svg version="1.1" id="Layer_1" xmlns="http://www.w3.org/2000/svg" xmlns:xlink="http://www.w3.org/1999/xlink" x="0px" y="0px"
	 width="100%" viewBox="0 0 500 500" enable-background="new 0 0 500 500" xml:space="preserve">
<path fill="#000000" opacity="1.000000" stroke="none" 
	d="
M339.000000,501.000000 
	C226.000031,501.000000 113.500053,501.000000 1.000060,501.000000 
	C1.000040,334.333405 1.000040,167.666794 1.000020,1.000150 
	C167.666565,1.000100 334.333130,1.000100 500.999756,1.000050 
	C500.999847,167.666519 500.999847,334.333038 500.999939,500.999786 
	C447.166656,501.000000 393.333344,501.000000 339.000000,501.000000 
M289.014252,209.013931 
	C289.014252,209.013931 289.081726,208.988647 289.526306,208.738510 
	C289.691437,208.446320 289.856567,208.154114 290.335297,207.349228 
	C291.468933,206.230103 292.602600,205.110992 294.247284,203.812042 
	C294.488770,203.550781 294.730255,203.289536 294.975281,202.964188 
	C294.975281,202.964188 295.037292,202.980698 295.476196,202.858795 
	C295.762970,202.703278 295.936188,202.465164 296.052856,202.066254 
	C296.052856,202.066254 296.146179,202.040710 296.699402,201.980011 
	C297.126923,201.640076 297.554474,201.300156 298.000000,201.000076 
	C298.000000,201.000076 297.974304,200.964752 298.553223,200.886276 
	C299.027039,200.560272 299.500885,200.234283 299.992401,199.967056 
	C299.992401,199.967056 299.938660,199.937408 300.596497,199.771164 
	C301.162537,199.390839 301.728546,199.010513 302.259064,198.614349 
	C302.259064,198.614349 302.280853,198.582123 303.114410,198.562927 
	C306.562866,197.378128 310.011353,196.193329 313.486786,194.953262 
	C313.486786,194.953262 313.531830,194.995132 314.397308,195.118790 
	C316.768280,194.398239 319.139252,193.677689 321.505371,192.979797 
	C321.505371,192.979797 321.521667,192.969818 322.049316,193.412018 
	C322.693146,193.601105 323.336945,193.790207 324.020020,193.949585 
	C324.020020,193.949585 324.028137,193.998123 324.603790,194.485016 
	C326.728760,194.309677 328.853729,194.134338 330.988922,194.001465 
	C330.988922,194.001465 330.966583,193.959732 331.420746,193.785324 
	C331.710052,193.600220 331.891724,193.339966 331.954010,192.955154 
	C331.954010,192.955154 332.003693,192.965988 332.445801,192.778198 
	C332.722717,192.584930 332.896149,192.323105 332.962708,191.966019 
	C332.962708,191.966019 332.989563,191.965988 333.633636,191.726593 
	C334.353088,190.594116 335.072571,189.461624 335.846222,188.372452 
	C335.846222,188.372452 335.800690,188.424789 336.345825,187.877075 
	C336.862122,186.482269 337.378387,185.087448 337.815308,183.044479 
	C336.881592,182.017700 335.947876,180.990921 334.996765,180.000244 
	C334.996765,180.000244 335.026184,179.973923 334.615295,179.408249 
	C323.485992,174.909348 312.437592,175.119720 301.495178,180.008698 
	C301.495178,180.008698 301.491089,179.968704 300.640198,179.914963 
	C296.748047,181.931519 292.855927,183.948074 288.997314,186.002518 
	C288.997314,186.002518 288.988312,185.952850 288.389465,185.925949 
	C287.937744,186.288605 287.486023,186.651276 286.991852,186.983215 
	C286.991852,186.983215 286.991119,187.035614 286.390259,187.166489 
	C286.086273,187.438507 285.782257,187.710526 285.022949,188.407242 
	C282.042847,191.576859 279.062775,194.746460 275.379639,198.071426 
	C269.173157,201.000061 268.027832,203.873947 270.865662,209.484924 
	C270.865662,209.484924 270.758179,209.608185 270.119598,210.034485 
	C266.859314,215.304489 266.983765,220.259232 270.823151,225.356934 
	C271.174561,225.932114 271.525940,226.507294 272.007477,227.746246 
	C273.328674,228.830536 274.649902,229.914825 276.014984,230.973312 
	C276.014984,230.973312 276.013214,231.024185 276.325806,231.589737 
	C276.595032,233.263885 276.864258,234.938034 277.054657,236.593277 
	C277.054657,236.593277 277.073486,236.514465 276.607513,237.114532 
	C276.414917,237.579895 276.222321,238.045258 276.014008,238.510529 
	C276.014008,238.510529 276.020233,238.525604 275.468353,238.980652 
	C275.177307,239.356064 274.886261,239.731476 274.616089,240.762802 
	C271.116608,246.429565 268.097443,252.471588 264.021790,257.688232 
	C254.293884,270.139496 252.623169,284.735474 252.054916,299.624481 
	C251.667511,309.775299 252.156967,319.957489 251.889099,330.115997 
	C251.776718,334.378632 252.884338,336.128021 257.444794,335.909027 
	C262.184509,335.681396 263.046570,337.643250 260.395935,341.701019 
	C258.136078,345.160583 255.697922,348.503662 253.374893,351.846130 
	C256.507751,355.136230 256.555847,355.222412 259.675323,353.480865 
	C264.329773,350.882355 269.081024,348.396027 273.441956,345.360443 
	C275.435059,343.972961 277.271027,341.606262 278.009277,339.308167 
	C280.401001,331.863098 281.967438,324.148560 284.459229,316.742218 
	C285.370605,314.033356 287.525787,311.205170 289.906616,309.630585 
	C296.705811,305.133881 303.921539,301.268616 310.949036,297.113770 
	C312.071472,296.450134 313.068390,295.574188 314.883392,294.236053 
	C312.017365,293.605835 310.358093,293.240997 307.290100,292.566406 
	C315.418304,288.617767 322.350250,285.250275 330.592560,281.246216 
	C323.068848,276.761261 316.541168,272.870056 310.013489,268.978851 
	C310.187622,268.529785 310.361725,268.080719 310.535858,267.631653 
	C313.817444,267.848175 317.099030,268.064728 321.285522,268.340942 
	C319.534119,265.979156 318.479614,264.557159 316.995514,262.694153 
	C316.650055,262.476868 316.304565,262.259613 315.971497,262.040680 
	C315.971497,262.040680 315.945923,262.053955 315.734131,261.400818 
	C313.958405,259.963165 312.182678,258.525513 310.426239,257.031586 
	C310.426239,257.031586 310.467834,257.074127 310.082886,256.609497 
	C309.739166,256.409973 309.395477,256.210419 308.985962,256.014221 
	C308.985962,256.014221 308.992340,255.948669 308.819336,255.504211 
	C308.623749,255.228348 308.358673,255.065659 307.972321,255.033096 
	C307.972321,255.033096 307.980713,254.979202 307.783936,254.543427 
	C307.587891,254.271286 307.325897,254.100204 306.963531,254.037308 
	C306.963531,254.037308 306.969116,254.002640 306.799652,253.358231 
	C305.168701,251.931458 303.537750,250.504684 301.957520,249.032990 
	C301.957520,249.032990 301.944794,249.099548 301.652435,248.550766 
	C300.801849,248.021515 299.951263,247.492264 299.031158,246.969040 
	C299.031158,246.969040 299.014465,246.901306 298.835480,246.473984 
	C298.645081,246.206772 298.387695,246.048584 297.994934,246.003876 
	C297.994934,246.003876 297.994995,245.935410 297.787323,245.480133 
	C297.505646,245.312836 297.223969,245.145538 296.483673,244.694229 
	C295.987671,244.176468 295.491638,243.658707 294.799377,242.652313 
	C294.523560,242.444489 294.247742,242.236649 293.995483,242.003662 
	C293.995483,242.003662 293.966187,242.030838 293.753754,241.401230 
	C291.899170,239.916183 290.044586,238.431122 288.068481,236.893570 
	C288.068481,236.893570 288.000427,236.780045 287.799042,236.259171 
	C287.519379,236.017868 287.239716,235.776550 286.690948,235.505341 
	C286.505432,235.407074 286.431213,235.254623 286.093781,234.574799 
	C285.745178,234.384857 285.396545,234.194901 284.987396,234.017624 
	C284.987396,234.017624 284.993011,233.956024 284.798737,233.523361 
	C284.600281,233.255951 284.337646,233.090424 283.961456,233.039124 
	C283.961456,233.039124 283.973022,232.989639 283.777771,232.546341 
	C283.578949,232.269989 283.312653,232.098297 282.996338,232.005096 
	C282.996338,232.005096 282.973541,232.035019 282.673065,231.431030 
	C281.790497,229.816956 280.907898,228.202866 279.998352,226.513855 
	C279.998352,226.513855 280.059326,226.462616 280.636719,225.995148 
	C281.598419,223.418106 282.560089,220.841049 283.469513,217.930679 
	C283.518677,217.680618 283.667358,217.526672 284.339722,217.008133 
	C284.539337,216.645645 284.738983,216.283173 284.920624,215.987411 
	C284.920624,215.987411 284.854828,215.966171 285.307251,215.445282 
	C285.529938,214.800171 285.752594,214.155045 285.952393,213.465332 
	C285.952393,213.465332 286.002533,213.464920 286.486206,212.961609 
	C286.659454,212.534622 286.832672,212.107635 287.083344,211.488297 
	C287.083344,211.488297 287.237579,211.349686 287.654144,211.098755 
	C287.905365,210.868393 288.034271,210.582962 288.096832,210.108109 
	C288.096832,210.108109 288.204987,210.010666 288.607971,209.840820 
	C288.857208,209.650558 288.990417,209.398849 289.014252,209.013931 
M147.792587,112.800667 
	C147.792587,112.800667 147.717224,112.897957 147.288406,113.051704 
	C147.024185,113.250000 146.893311,113.514328 146.857513,113.887215 
	C146.857513,113.887215 146.845490,113.943115 146.363708,114.232979 
	C146.210968,114.570374 146.058228,114.907776 145.825256,115.386887 
	C145.825256,115.386887 145.752380,115.532509 145.188293,115.971161 
	C145.302078,117.638115 145.415878,119.305077 145.507111,120.994560 
	C145.507111,120.994560 145.536575,120.986038 145.900497,121.493248 
	C146.272202,121.660690 146.643906,121.828140 146.997528,122.006340 
	C146.997528,122.006340 146.996841,121.985718 147.257233,122.385445 
	C147.883270,125.882309 149.663605,128.086014 153.501831,127.994751 
	C153.501831,127.994751 153.517776,127.977951 153.999237,128.480652 
	C154.648758,128.669113 155.298264,128.857590 155.964813,129.061478 
	C155.964813,129.061478 155.984283,129.073700 156.267029,129.582535 
	C156.797546,129.770676 157.328079,129.958832 157.887299,130.168060 
	C157.887299,130.168060 157.920044,130.182098 158.211151,130.738342 
	C159.130600,131.169296 160.050064,131.600250 160.993225,132.006424 
	C160.993225,132.006424 160.985962,132.039352 161.312286,132.610428 
	C162.068771,133.031799 162.825241,133.453171 163.588409,133.893341 
	C163.588409,133.893341 163.585938,133.912796 164.033432,134.447952 
	C164.414322,134.710861 164.795212,134.973755 165.754227,135.478455 
	C167.772049,137.585526 169.789856,139.692596 172.136520,142.411789 
	C172.452179,142.749039 172.767822,143.086273 173.107864,143.383438 
	C173.107864,143.383438 173.137497,143.419815 173.291245,144.203812 
	C174.554733,147.627457 175.818207,151.051102 177.322067,155.122726 
	C177.238602,156.258163 177.155151,157.393616 176.767853,159.244995 
	C175.965393,162.232803 175.162933,165.220596 174.332916,168.218307 
	C174.332916,168.218307 174.330368,168.192886 173.848373,168.674728 
	C173.591934,169.297577 173.335495,169.920441 173.093674,170.527298 
	C173.093674,170.527298 173.101593,170.555008 172.591660,171.017578 
	C172.504211,172.790314 172.416748,174.563065 172.306778,176.792404 
	C171.095795,177.507065 169.038132,178.721375 166.978622,180.010635 
	C166.978622,180.010635 167.023056,180.071014 166.626465,179.996979 
	C166.626465,179.996979 166.230133,180.072495 165.652206,180.425766 
	C163.486420,182.934525 164.280823,185.139664 166.414917,187.224670 
	C166.414917,187.224670 166.422928,187.291428 166.528351,187.998322 
	C167.682602,189.328979 168.836868,190.659637 170.006943,191.994110 
	C170.006943,191.994110 170.006393,192.010010 170.136307,192.488586 
	C170.308960,192.804382 170.573929,192.984131 170.959061,193.038406 
	C170.959061,193.038406 170.964844,193.067627 171.126801,193.715439 
	C173.488480,196.414795 175.963333,195.843689 178.499741,193.999374 
	C178.499741,193.999374 178.487122,193.967224 179.292435,193.960800 
	C180.830917,193.605713 182.369415,193.250626 184.022232,193.047150 
	C184.022232,193.047150 184.169296,193.167267 184.318466,193.477066 
	C184.788864,193.650116 185.259247,193.823181 186.566498,194.010376 
	C187.125778,194.008759 187.685059,194.007141 188.849258,194.344086 
	C193.341812,196.024933 198.073532,197.252762 202.280853,199.473923 
	C213.645111,205.473450 219.281891,215.920654 223.099976,227.642303 
	C224.440201,231.756836 225.856186,232.051697 228.943893,229.031601 
	C234.842499,223.262207 234.764969,216.540024 232.173187,208.710159 
	C234.701645,204.322006 233.023300,201.255524 228.697464,198.369843 
	C226.110107,195.954620 223.522766,193.539398 220.929596,191.065277 
	C220.929596,191.065277 220.871841,191.052322 220.719910,190.616318 
	C220.533859,190.340088 220.274612,190.191864 219.902451,190.099823 
	C219.902451,190.099823 219.823181,190.078598 219.663437,189.688187 
	C219.476898,189.446716 219.231140,189.330276 218.824921,189.227737 
	C218.824921,189.227737 218.688934,189.163620 218.436508,188.675369 
	C217.960419,188.445068 217.484329,188.214767 217.000000,188.000000 
	C217.000000,188.000000 217.011337,187.986847 216.710510,187.452042 
	C216.158386,187.248108 215.606262,187.044174 215.075272,186.914291 
	C215.075272,186.914291 215.148087,186.889160 214.994934,186.359985 
	C214.669495,186.227371 214.344055,186.094742 214.001801,186.000931 
	C214.001801,186.000931 214.028854,185.965530 213.744904,185.375900 
	C211.800079,184.341293 209.855240,183.306686 207.841736,182.210541 
	C207.841736,182.210541 207.749664,182.215805 207.381104,181.770203 
	C206.363556,181.242401 205.346008,180.714600 203.452377,179.967514 
	C203.151352,179.965408 202.850327,179.963303 202.516815,179.969482 
	C202.516815,179.969482 202.494965,179.944107 201.965591,179.404816 
	C200.563324,178.969940 199.161057,178.535065 197.474686,178.003555 
	C197.474686,178.003555 197.183487,177.931168 196.869278,177.705734 
	C196.498199,177.721985 196.127136,177.738235 195.137222,177.652832 
	C194.517471,177.582626 193.897736,177.512405 192.767075,177.062607 
	C191.200806,176.592270 189.634552,176.121933 187.837708,175.582336 
	C188.599609,174.641861 189.280823,173.800964 190.004852,172.986145 
	C190.004852,172.986145 189.955734,172.982224 190.506241,172.344666 
	C190.299210,165.901077 190.092194,159.457489 189.922485,153.062134 
	C189.922485,153.062134 189.862579,153.073578 189.928070,152.336349 
	C189.225021,150.773407 188.521973,149.210464 187.790329,147.630722 
	C187.790329,147.630722 187.798935,147.598679 187.687241,146.940765 
	C187.152771,146.286240 186.618301,145.631714 186.071152,144.946655 
	C186.071152,144.946655 186.042511,144.930130 185.943100,144.343964 
	C185.667130,144.064896 185.391144,143.785828 185.091675,143.437943 
	C185.091675,143.437943 185.056519,143.374298 184.939651,142.782257 
	C184.654358,142.516785 184.369049,142.251312 184.072586,141.945633 
	C184.072586,141.945633 184.036728,141.924286 183.890015,141.335632 
	C183.599838,141.061630 183.309662,140.787613 182.978592,140.515198 
	C182.978592,140.515198 182.991226,140.476242 182.785919,139.898132 
	C182.498962,139.614365 182.212006,139.330612 181.986618,139.015671 
	C181.986618,139.015671 181.945374,139.071030 181.658493,138.557678 
	C181.354355,138.310822 181.050232,138.063980 180.214203,137.491409 
	C176.953064,135.030090 173.691910,132.568787 169.868118,129.651520 
	C168.979660,129.377380 168.091187,129.103256 167.135254,128.776215 
	C167.135254,128.776215 167.053650,128.749924 166.761597,128.180191 
	C164.840179,125.962639 162.918747,123.745094 160.972534,121.516418 
	C160.972534,121.516418 160.981277,121.490822 160.765442,120.806427 
	C160.470047,120.430183 160.174667,120.053947 159.792358,119.650459 
	C159.792358,119.650459 159.811768,119.561462 159.562103,118.934647 
	C159.283844,118.582237 159.005585,118.229820 158.569748,117.760483 
	C158.569748,117.760483 158.501831,117.576385 158.562103,116.544777 
	C158.500565,115.171402 158.439011,113.798019 158.485123,112.045624 
	C158.590637,111.800186 158.741913,111.587273 159.427216,110.868027 
	C159.619492,110.427559 159.811768,109.987083 160.028946,109.501076 
	C160.028946,109.501076 160.067551,109.466385 160.566101,109.174240 
	C160.746613,108.846603 160.927109,108.518974 161.174194,108.155418 
	C161.174194,108.155418 161.214890,108.091644 161.649979,107.918983 
	C161.908997,107.708405 162.046967,107.436417 162.093338,107.089233 
	C162.093338,107.089233 162.107208,107.059860 162.570038,106.918457 
	C162.873199,106.738083 163.035355,106.471840 163.138550,106.082520 
	C163.138550,106.082520 163.210419,106.028175 163.818314,105.905861 
	C164.932602,104.793419 166.046890,103.680977 167.161163,102.568542 
	C166.764847,102.072426 166.368530,101.576309 165.972214,101.080193 
	C162.963608,103.011253 159.955017,104.942314 156.927643,106.892555 
	C156.927643,106.892555 156.903137,106.903458 156.319962,106.914383 
	C155.877090,107.255768 155.434219,107.597153 154.973495,107.953094 
	C154.973495,107.953094 154.952255,107.961983 154.370071,107.985069 
	C153.909927,108.312263 153.449783,108.639458 152.998383,108.994720 
	C152.998383,108.994720 152.979233,108.975098 152.315125,109.032166 
	C151.756409,109.391945 151.197693,109.751724 150.592026,110.153526 
	C150.592026,110.153526 150.551971,110.104889 149.929993,110.436623 
	C149.626251,110.787567 149.322510,111.138512 149.020187,111.525490 
	C149.020187,111.525490 148.984116,111.524597 148.475189,111.785332 
	C148.283096,112.103119 148.091003,112.420914 147.792587,112.800667 
M333.994690,137.018280 
	C333.994690,137.018280 334.031738,137.067001 334.481781,137.079391 
	C334.769379,136.783218 335.057007,136.487061 335.828735,135.936859 
	C335.953064,135.803635 336.077393,135.670395 336.774445,135.380493 
	C339.209625,133.652649 341.644806,131.924789 344.178955,130.213623 
	C344.178955,130.213623 344.211243,130.118637 344.926727,130.033691 
	C347.566040,128.762619 350.205353,127.491539 353.304932,125.998795 
	C351.718445,124.848961 350.820831,124.198418 349.554321,123.280502 
	C351.072693,122.752586 352.004883,122.420006 352.942657,122.103889 
	C357.222748,120.661064 358.609772,117.586166 355.702637,114.276093 
	C350.538086,108.395729 343.189545,105.825577 336.301819,102.504181 
	C338.155121,105.690689 340.802277,108.029938 342.641327,110.888992 
	C343.855682,112.776787 345.121735,116.152573 344.254089,117.573204 
	C341.648010,121.840485 340.485077,127.690865 334.270264,128.951462 
	C333.230164,129.162445 332.356445,130.193573 331.043060,130.959503 
	C331.043060,130.959503 330.790283,131.243515 330.210449,131.337006 
	C329.637512,131.870651 329.064545,132.404282 328.232483,132.932129 
	C328.232483,132.932129 328.105377,133.158020 327.493408,133.304611 
	C326.255493,134.448105 325.017578,135.591599 323.220337,137.179733 
	C323.085022,137.375748 322.949738,137.571762 322.324249,137.930634 
	C321.352356,139.228592 320.380493,140.526535 319.028381,142.147934 
	C319.028381,142.147934 318.789093,142.586014 318.676239,142.488586 
	C318.676239,142.488586 318.677429,142.706207 318.210907,143.235931 
	C318.116425,143.451385 318.021912,143.666855 317.487122,144.138367 
	C317.037567,145.118134 316.588013,146.097900 315.899872,147.331207 
	C315.899872,147.331207 315.867645,147.677856 315.374207,148.118011 
	C315.229614,148.742004 315.085022,149.365982 314.988556,149.974075 
	C314.988556,149.974075 314.931458,149.969498 314.408905,150.420929 
	C313.404877,156.036743 312.074493,161.623489 311.570068,167.283829 
	C311.388275,169.323761 313.190918,171.540543 314.848206,173.930527 
	C315.912598,173.904129 316.976990,173.877747 318.774353,174.188782 
	C322.583252,174.461975 326.392181,174.735168 331.749176,175.119415 
	C325.900269,165.014404 323.150604,155.902420 327.041992,146.053268 
	C327.041992,146.053268 327.104431,146.093292 327.672302,145.811356 
	C328.656067,144.262817 329.639801,142.714264 330.958282,140.877823 
	C330.958282,140.877823 331.146210,140.478333 331.621429,140.270828 
	C332.099670,139.529007 332.577911,138.787170 333.017670,137.997375 
	C333.017670,137.997375 333.038971,138.048401 333.557159,137.929535 
	C333.722351,137.631638 333.887573,137.333725 333.994690,137.018280 
M203.160446,216.279968 
	C200.138504,212.426590 197.116562,208.573227 194.094620,204.719849 
	C193.597351,204.865952 193.100098,205.012054 192.602829,205.158157 
	C191.980667,225.238342 191.358490,245.318542 190.774139,264.178406 
	C199.661133,256.045898 208.569427,248.070374 217.163147,239.769135 
	C218.067535,238.895523 217.830505,235.604980 216.907547,234.286926 
	C212.715820,228.300842 208.088486,222.619797 203.160446,216.279968 
M259.170349,209.825424 
	C260.060333,209.232224 260.950348,208.639038 262.662231,207.498032 
	C254.173889,207.498032 246.766327,207.498032 239.358765,207.498032 
	C247.242172,210.568695 249.233307,217.383301 250.627960,223.704605 
	C253.336548,219.093918 255.956772,214.633636 259.170349,209.825424 
M219.629227,273.169373 
	C219.228592,273.423889 218.827957,273.678375 218.427322,273.932892 
	C221.260773,276.969513 223.632095,280.786621 227.061234,282.817230 
	C230.311508,284.741913 234.670502,284.794281 238.371521,285.631470 
	C238.130402,281.846069 233.998795,276.228973 229.928650,275.221344 
	C226.716339,274.426147 223.444199,273.872589 219.629227,273.169373 
z"/>
<path fill="#CB041D" opacity="1.000000" stroke="none" 
	d="
M317.425110,263.135132 
	C318.479614,264.557159 319.534119,265.979156 321.285522,268.340942 
	C317.099030,268.064728 313.817444,267.848175 310.535858,267.631653 
	C310.361725,268.080719 310.187622,268.529785 310.013489,268.978851 
	C316.541168,272.870056 323.068848,276.761261 330.592560,281.246216 
	C322.350250,285.250275 315.418304,288.617767 307.290100,292.566406 
	C310.358093,293.240997 312.017365,293.605835 314.883392,294.236053 
	C313.068390,295.574188 312.071472,296.450134 310.949036,297.113770 
	C303.921539,301.268616 296.705811,305.133881 289.906616,309.630585 
	C287.525787,311.205170 285.370605,314.033356 284.459229,316.742218 
	C281.967438,324.148560 280.401001,331.863098 278.009277,339.308167 
	C277.271027,341.606262 275.435059,343.972961 273.441956,345.360443 
	C269.081024,348.396027 264.329773,350.882355 259.675323,353.480865 
	C256.555847,355.222412 256.507751,355.136230 253.374893,351.846130 
	C255.697922,348.503662 258.136078,345.160583 260.395935,341.701019 
	C263.046570,337.643250 262.184509,335.681396 257.444794,335.909027 
	C252.884338,336.128021 251.776718,334.378632 251.889099,330.115997 
	C252.156967,319.957489 251.667511,309.775299 252.054916,299.624481 
	C252.623169,284.735474 254.293884,270.139496 264.021790,257.688232 
	C268.097443,252.471588 271.116608,246.429565 274.971252,240.310608 
	C275.557709,239.414154 275.788971,238.969879 276.020233,238.525604 
	C276.020233,238.525604 276.014008,238.510529 276.322388,238.254181 
	C276.778351,237.503357 276.925903,237.008911 277.073486,236.514465 
	C277.073486,236.514465 277.054657,236.593277 277.420654,236.454834 
	C279.515594,234.889282 281.244568,233.462143 282.973541,232.035004 
	C282.973541,232.035019 282.996338,232.005096 283.061890,232.258087 
	C283.409302,232.670609 283.691162,232.830124 283.973022,232.989639 
	C283.973022,232.989639 283.961456,233.039124 284.055298,233.270874 
	C284.351074,233.801376 284.632385,233.952515 284.993011,233.956024 
	C284.993011,233.956024 284.987396,234.017624 285.178040,234.277008 
	C285.735199,234.706924 286.101776,234.877457 286.468323,235.048004 
	C286.431213,235.254623 286.505432,235.407074 286.895538,235.801132 
	C287.400238,236.324631 287.700317,236.552338 288.000427,236.780045 
	C288.000427,236.780045 288.068481,236.893570 288.253174,237.217682 
	C290.280670,239.038132 292.123413,240.534485 293.966187,242.030838 
	C293.966187,242.030838 293.995483,242.003662 294.057617,242.275528 
	C294.411743,242.745239 294.703674,242.943085 294.995636,243.140930 
	C295.491638,243.658707 295.987671,244.176468 296.815247,245.067062 
	C297.429535,245.605072 297.712280,245.770233 297.994995,245.935410 
	C297.994995,245.935410 297.994934,246.003876 298.102112,246.227722 
	C298.402802,246.735519 298.671204,246.885422 299.014465,246.901306 
	C299.014465,246.901306 299.031158,246.969040 299.206879,247.246552 
	C300.236664,248.049240 301.090729,248.574387 301.944794,249.099548 
	C301.944794,249.099548 301.957520,249.032990 301.990234,249.385254 
	C303.671661,251.159241 305.320374,252.580948 306.969116,254.002655 
	C306.969116,254.002640 306.963531,254.037308 307.048096,254.275055 
	C307.415314,254.668259 307.698029,254.823730 307.980713,254.979202 
	C307.980713,254.979202 307.972321,255.033096 308.079193,255.251724 
	C308.378601,255.758224 308.647369,255.917664 308.992340,255.948669 
	C308.992340,255.948669 308.985962,256.014221 309.167053,256.291748 
	C309.721405,256.737549 310.094604,256.905853 310.467834,257.074127 
	C310.467834,257.074127 310.426239,257.031586 310.527893,257.400818 
	C312.401642,259.198029 314.173798,260.625977 315.945923,262.053955 
	C315.945923,262.053955 315.971497,262.040680 316.092468,262.354370 
	C316.617371,262.823730 317.021240,262.979431 317.425110,263.135132 
M278.129517,282.063690 
	C280.529633,279.779877 282.929749,277.496033 285.887878,274.681244 
	C275.987213,273.068390 270.581329,275.859833 267.095093,283.853271 
	C270.681885,283.278961 274.013153,282.745575 278.129517,282.063690 
z"/>
<path fill="#C6071E" opacity="1.000000" stroke="none" 
	d="
M203.389160,216.554489 
	C208.088486,222.619797 212.715820,228.300842 216.907547,234.286926 
	C217.830505,235.604980 218.067535,238.895523 217.163147,239.769135 
	C208.569427,248.070374 199.661133,256.045898 190.774139,264.178406 
	C191.358490,245.318542 191.980667,225.238342 192.602829,205.158157 
	C193.100098,205.012054 193.597351,204.865952 194.094620,204.719849 
	C197.116562,208.573227 200.138504,212.426590 203.389160,216.554489 
z"/>
<path fill="#BF0A1F" opacity="1.000000" stroke="none" 
	d="
M153.517776,127.977951 
	C153.517776,127.977951 153.501831,127.994751 153.396484,127.734573 
	C154.181763,126.928558 155.191940,125.786827 155.942780,125.937515 
	C159.683868,126.688309 163.356750,127.778915 167.053650,128.749924 
	C167.053650,128.749924 167.135254,128.776215 167.435577,129.037476 
	C168.634186,129.568329 169.532486,129.837906 170.430771,130.107483 
	C173.691910,132.568787 176.953064,135.030090 180.575256,137.953354 
	C181.272675,138.633865 181.609024,138.852448 181.945374,139.071030 
	C181.945374,139.071030 181.986618,139.015671 182.027985,139.335388 
	C182.376648,139.928818 182.683945,140.202530 182.991226,140.476242 
	C182.991226,140.476242 182.978592,140.515198 183.088928,140.801300 
	C183.478424,141.366379 183.757568,141.645325 184.036728,141.924286 
	C184.036728,141.924286 184.072586,141.945633 184.172699,142.237930 
	C184.534042,142.811584 184.795273,143.092941 185.056519,143.374298 
	C185.056519,143.374298 185.091675,143.437943 185.184464,143.755280 
	C185.532349,144.358459 185.787430,144.644287 186.042511,144.930130 
	C186.042511,144.930130 186.071152,144.946655 186.133942,145.279800 
	C186.730804,146.274857 187.264877,146.936768 187.798935,147.598679 
	C187.798935,147.598679 187.790329,147.630722 187.781952,148.034180 
	C188.469894,149.982941 189.166229,151.528259 189.862579,153.073578 
	C189.862579,153.073578 189.922485,153.062134 189.819427,153.502930 
	C189.796158,160.289902 189.875946,166.636063 189.955734,172.982224 
	C189.955734,172.982224 190.004852,172.986145 189.575043,173.049942 
	C184.884918,173.384094 180.616699,173.898422 176.369629,173.760727 
	C175.246811,173.724319 174.189163,171.678268 173.101593,170.555008 
	C173.101593,170.555008 173.093674,170.527298 173.380219,170.334396 
	C173.887955,169.491959 174.109161,168.842422 174.330368,168.192886 
	C174.330368,168.192886 174.332916,168.218307 174.630463,168.029541 
	C175.642563,164.736862 176.357117,161.632965 177.071686,158.529053 
	C177.155151,157.393616 177.238602,156.258163 177.370087,154.472015 
	C175.991226,150.354141 174.564362,146.886978 173.137497,143.419815 
	C173.137497,143.419815 173.107864,143.383438 173.008179,143.046158 
	C172.541550,142.405807 172.174622,142.102737 171.807678,141.799667 
	C169.789856,139.692596 167.772049,137.585526 165.300537,135.031342 
	C164.426544,134.360428 164.006241,134.136612 163.585938,133.912796 
	C163.585938,133.912796 163.588409,133.893341 163.429993,133.581757 
	C162.509705,132.859894 161.747833,132.449615 160.985962,132.039352 
	C160.985962,132.039352 160.993225,132.006424 160.818024,131.755249 
	C159.735214,131.063431 158.827637,130.622757 157.920044,130.182098 
	C157.920044,130.182098 157.887299,130.168060 157.687744,129.946869 
	C156.986893,129.508362 156.485596,129.291031 155.984283,129.073700 
	C155.984283,129.073700 155.964813,129.061478 155.706482,128.821640 
	C154.804703,128.380524 154.161240,128.179230 153.517776,127.977951 
z"/>
<path fill="#C3081F" opacity="1.000000" stroke="none" 
	d="
M231.967133,209.413879 
	C234.764969,216.540024 234.842499,223.262207 228.943893,229.031601 
	C225.856186,232.051697 224.440201,231.756836 223.099976,227.642303 
	C219.281891,215.920654 213.645111,205.473450 202.280853,199.473923 
	C198.073532,197.252762 193.341812,196.024933 188.708496,193.862244 
	C189.708435,193.101196 190.849152,192.821960 192.400604,192.629852 
	C194.202286,192.656708 195.593216,192.596466 197.386780,192.621277 
	C199.156769,192.795471 200.524124,192.884583 202.214569,193.152802 
	C203.741623,193.513962 204.945633,193.696060 206.499969,193.990234 
	C216.855499,196.527573 224.779190,202.367279 231.967133,209.413879 
z"/>
<path fill="#C6071E" opacity="1.000000" stroke="none" 
	d="
M202.494965,179.944107 
	C202.494965,179.944107 202.516815,179.969482 202.724091,180.175720 
	C203.233704,180.602188 203.536057,180.822388 204.130157,181.227921 
	C205.531143,181.680771 206.640411,181.948288 207.749664,182.215805 
	C207.749664,182.215805 207.841736,182.210541 208.019394,182.531342 
	C210.140991,183.889938 212.084915,184.927734 214.028854,185.965530 
	C214.028854,185.965530 214.001801,186.000931 214.145630,186.193237 
	C214.575684,186.553421 214.861877,186.721283 215.148087,186.889160 
	C215.148087,186.889160 215.075272,186.914291 215.258148,187.097733 
	C215.964447,187.516403 216.487900,187.751617 217.011337,187.986847 
	C217.011337,187.986847 217.000000,188.000000 217.139130,188.227951 
	C217.748489,188.691818 218.218719,188.927719 218.688934,189.163620 
	C218.688934,189.163620 218.824921,189.227737 218.956940,189.475494 
	C219.277878,189.957016 219.522614,190.075470 219.823181,190.078598 
	C219.823181,190.078598 219.902451,190.099823 220.007141,190.346298 
	C220.298187,190.856705 220.551529,191.009888 220.871841,191.052322 
	C220.871841,191.052322 220.929596,191.065277 221.011215,191.416199 
	C222.576050,194.291107 224.059265,196.815079 225.455139,199.286148 
	C225.367813,199.233246 225.257034,199.061707 225.022247,198.852341 
	C224.405396,198.480499 224.023300,198.318024 223.317123,198.073425 
	C219.338501,196.000153 215.683975,194.008987 211.892181,191.869812 
	C211.519104,191.559692 211.261337,191.508881 210.676361,191.436493 
	C209.937943,191.210220 209.504807,191.116852 208.833679,190.851562 
	C208.030945,190.538620 207.466202,190.397614 206.659943,190.146606 
	C206.067902,190.004227 205.717361,189.971848 204.954224,189.775574 
	C199.605331,189.728867 194.669052,189.846069 189.453094,189.971680 
	C188.815430,190.080505 188.457474,190.180954 187.800598,190.282410 
	C186.960922,190.523361 186.420181,190.763306 185.614166,191.024719 
	C184.858994,191.240997 184.369064,191.435806 183.502197,191.640976 
	C181.579208,192.423294 180.033157,193.195251 178.487122,193.967224 
	C178.487122,193.967224 178.499741,193.999374 178.042786,193.980103 
	C175.378845,193.663086 173.171844,193.365356 170.964844,193.067627 
	C170.964844,193.067627 170.959061,193.038406 170.874329,192.798370 
	C170.612915,192.255051 170.351852,192.072266 170.006393,192.010010 
	C170.006393,192.010010 170.006943,191.994110 169.936279,191.667999 
	C168.718048,189.991730 167.570496,188.641571 166.422928,187.291428 
	C166.422928,187.291428 166.414917,187.224670 166.375122,186.777512 
	C166.310120,184.647690 166.284912,182.965027 166.439407,181.115234 
	C166.842010,180.696335 166.976654,180.403976 167.023056,180.071014 
	C167.023056,180.071014 166.978622,180.010635 167.345001,179.942108 
	C169.372971,179.478424 171.034546,179.083267 173.046722,178.709717 
	C174.296234,178.527985 175.195160,178.324646 176.409821,178.082245 
	C177.147476,177.999405 177.569382,177.955612 178.449310,177.967865 
	C182.624023,177.978317 186.340744,177.932739 190.381882,177.918030 
	C191.138657,177.992554 191.571014,178.036194 192.345230,178.230545 
	C194.445206,178.606567 196.203308,178.831863 197.976990,179.049438 
	C197.992554,179.041718 197.967407,179.040512 198.177338,179.190628 
	C198.710953,179.460281 199.034622,179.579819 199.749725,179.734314 
	C200.925751,179.827545 201.710358,179.885818 202.494965,179.944107 
z"/>
<path fill="#C8061D" opacity="1.000000" stroke="none" 
	d="
M276.082672,197.916077 
	C279.062775,194.746460 282.042847,191.576859 285.553345,188.124283 
	C286.386230,187.572754 286.688690,187.304184 286.991119,187.035614 
	C286.991119,187.035614 286.991852,186.983215 287.304718,186.979401 
	C288.074493,186.634689 288.531403,186.293777 288.988342,185.952850 
	C288.988312,185.952850 288.997314,186.002518 289.342438,185.949707 
	C293.622070,183.920837 297.556580,181.944778 301.491089,179.968704 
	C301.491089,179.968704 301.495178,180.008698 301.936615,180.009506 
	C313.257874,177.393967 324.140350,177.179260 335.026184,179.973923 
	C335.026184,179.973923 334.996765,180.000244 335.157135,180.379654 
	C335.816925,182.087402 336.316345,183.415726 336.695496,185.100403 
	C336.317078,186.446091 336.058899,187.435440 335.800720,188.424789 
	C335.800690,188.424789 335.846222,188.372452 335.501190,188.488953 
	C334.433960,189.725616 333.711761,190.845810 332.989563,191.965988 
	C332.989563,191.965988 332.962708,191.966019 332.722229,192.045151 
	C332.322388,192.404846 332.163025,192.685425 332.003693,192.965988 
	C332.003693,192.965988 331.954010,192.955154 331.715759,193.041565 
	C331.307190,193.405228 331.136902,193.682480 330.966583,193.959732 
	C330.966583,193.959732 330.988922,194.001465 330.546600,193.976624 
	C328.078888,193.967239 326.053528,193.982681 324.028137,193.998123 
	C324.028137,193.998123 324.020020,193.949585 323.763000,193.711929 
	C322.844513,193.306122 322.183105,193.137970 321.521667,192.969818 
	C321.521667,192.969818 321.505371,192.979797 321.235291,192.690613 
	C314.350220,191.298065 307.735260,190.194717 300.733521,189.044800 
	C298.849304,189.306320 297.351807,189.614395 295.715393,189.969803 
	C295.576416,190.017120 295.288940,190.076996 294.921326,190.083679 
	C293.653137,190.444199 292.752594,190.798035 291.759583,191.197449 
	C291.667114,191.243011 291.462067,191.264252 291.128479,191.322571 
	C290.214264,191.710495 289.633667,192.040100 288.793030,192.491699 
	C287.663879,193.015091 286.794708,193.416489 285.688446,193.867340 
	C285.135529,194.032791 284.885712,194.231674 284.509460,194.584122 
	C284.316986,194.654800 283.932983,194.798584 283.638794,194.862885 
	C282.867401,195.276337 282.390228,195.625488 281.624390,196.161835 
	C279.584717,196.871399 277.833679,197.393738 276.082672,197.916077 
z"/>
<path fill="#C3081F" opacity="1.000000" stroke="none" 
	d="
M302.280853,198.582123 
	C302.280853,198.582123 302.259064,198.614349 301.907471,198.624542 
	C301.016815,199.068954 300.477753,199.503189 299.938660,199.937408 
	C299.938660,199.937408 299.992401,199.967056 299.677063,199.912704 
	C298.899231,200.227142 298.436768,200.595947 297.974304,200.964752 
	C297.974304,200.964752 298.000000,201.000076 297.707336,200.988312 
	C296.991852,201.331268 296.569000,201.685989 296.146179,202.040710 
	C296.146179,202.040710 296.052856,202.066254 295.804749,202.162933 
	C295.270325,202.418396 295.097198,202.658768 295.037292,202.980698 
	C295.037292,202.980698 294.975281,202.964188 294.705139,203.061615 
	C294.202057,203.436661 293.969177,203.714264 293.736267,203.991882 
	C292.602600,205.110992 291.468933,206.230103 289.948761,207.725052 
	C289.402069,208.396805 289.241882,208.692719 289.081726,208.988647 
	C289.081726,208.988647 289.014252,209.013931 288.809937,209.136841 
	C288.355835,209.448059 288.222290,209.698364 288.204987,210.010666 
	C288.204987,210.010666 288.096832,210.108109 287.872864,210.306107 
	C287.405548,210.734192 287.268433,211.016052 287.237579,211.349686 
	C287.237579,211.349686 287.083344,211.488297 286.790222,211.827972 
	C286.332245,212.600067 286.167389,213.032501 286.002533,213.464920 
	C286.002533,213.464920 285.952393,213.465332 285.690491,213.719177 
	C285.237305,214.637390 285.046082,215.301788 284.854828,215.966171 
	C284.854828,215.966171 284.920624,215.987411 284.631348,216.107147 
	C284.199890,216.640854 284.057709,217.054825 283.915527,217.468811 
	C283.667358,217.526672 283.518677,217.680618 283.203247,218.316406 
	C281.977783,221.288971 281.018555,223.875793 280.059326,226.462616 
	C280.059326,226.462616 279.998352,226.513855 279.806519,226.859955 
	C278.414215,228.478760 277.213715,229.751480 276.013214,231.024200 
	C276.013214,231.024185 276.014984,230.973312 275.832520,230.714462 
	C274.392487,229.331238 273.134918,228.206848 271.877319,227.082474 
	C271.525940,226.507294 271.174561,225.932114 270.621155,224.743713 
	C270.532166,219.289719 270.645172,214.448959 270.758179,209.608185 
	C270.758179,209.608185 270.865662,209.484924 271.183838,209.206940 
	C281.206512,199.001129 292.719604,192.908432 306.841248,192.812469 
	C309.066406,192.797348 311.301392,194.231232 313.531830,194.995132 
	C313.531830,194.995132 313.486786,194.953262 313.031921,194.918945 
	C309.144958,196.117111 305.712921,197.349625 302.280853,198.582123 
z"/>
<path fill="#BF0A1F" opacity="1.000000" stroke="none" 
	d="
M328.105377,133.158020 
	C328.105377,133.158020 328.232483,132.932129 328.645203,132.834518 
	C329.635376,132.239120 330.212830,131.741318 330.790283,131.243515 
	C330.790283,131.243515 331.043060,130.959503 331.549072,130.894318 
	C334.017273,130.437149 335.979401,130.045151 339.224365,129.396866 
	C337.828156,132.233185 337.014954,133.885178 336.201752,135.537170 
	C336.077393,135.670395 335.953064,135.803635 335.405884,136.122223 
	C334.665955,136.560730 334.348846,136.813873 334.031738,137.067017 
	C334.031738,137.067001 333.994690,137.018280 333.836334,137.176834 
	C333.438385,137.549240 333.225372,137.786911 333.038971,138.048401 
	C333.038971,138.048401 333.017670,137.997375 332.810883,138.176086 
	C332.118134,139.062653 331.632172,139.770493 331.146210,140.478333 
	C331.146210,140.478333 330.958282,140.877823 330.510132,141.119247 
	C329.076111,142.938217 328.090271,144.515747 327.104431,146.093292 
	C327.104431,146.093292 327.041992,146.053268 326.815979,146.294281 
	C320.841522,155.508942 325.508545,164.022049 328.154114,172.712830 
	C324.521332,173.121826 321.281342,173.486588 318.041382,173.851364 
	C316.976990,173.877747 315.912598,173.904129 314.422943,173.401840 
	C314.308960,165.238602 314.620209,157.604050 314.931458,149.969498 
	C314.931458,149.969498 314.988556,149.974075 315.121735,149.710663 
	C315.459167,148.857452 315.663391,148.267654 315.867645,147.677856 
	C315.867645,147.677856 315.899872,147.331207 316.251221,147.037445 
	C317.044159,145.789902 317.485748,144.836121 317.927368,143.882339 
	C318.021912,143.666855 318.116425,143.451385 318.477753,142.970062 
	C318.744598,142.704193 318.789093,142.586014 318.789093,142.586014 
	C318.789093,142.586014 319.028381,142.147934 319.481323,141.903992 
	C320.894318,140.362610 321.854401,139.065186 322.814484,137.767761 
	C322.949738,137.571762 323.085022,137.375748 323.763062,136.916290 
	C325.572327,135.487900 326.838837,134.322968 328.105377,133.158020 
z"/>
<path fill="#B40F23" opacity="1.000000" stroke="none" 
	d="
M336.488098,135.458832 
	C337.014954,133.885178 337.828156,132.233185 339.224365,129.396866 
	C335.979401,130.045151 334.017273,130.437149 331.730469,130.837448 
	C332.356445,130.193573 333.230164,129.162445 334.270264,128.951462 
	C340.485077,127.690865 341.648010,121.840485 344.254089,117.573204 
	C345.121735,116.152573 343.855682,112.776787 342.641327,110.888992 
	C340.802277,108.029938 338.155121,105.690689 336.301819,102.504181 
	C343.189545,105.825577 350.538086,108.395729 355.702637,114.276093 
	C358.609772,117.586166 357.222748,120.661064 352.942657,122.103889 
	C352.004883,122.420006 351.072693,122.752586 349.554321,123.280502 
	C350.820831,124.198418 351.718445,124.848961 353.304932,125.998795 
	C350.205353,127.491539 347.566040,128.762619 344.433716,129.883087 
	C343.537537,129.434143 343.134399,129.135803 342.731262,128.837463 
	C342.619537,129.017166 342.507812,129.196884 342.396088,129.376587 
	C342.957397,129.650040 343.518677,129.923477 344.079987,130.196930 
	C341.644806,131.924789 339.209625,133.652649 336.488098,135.458832 
M347.522583,126.493492 
	C347.522583,126.493492 347.486816,126.500732 347.522583,126.493492 
z"/>
<path fill="#2D181A" opacity="1.000000" stroke="none" 
	d="
M313.964569,195.056961 
	C311.301392,194.231232 309.066406,192.797348 306.841248,192.812469 
	C292.719604,192.908432 281.206512,199.001129 271.198608,209.126511 
	C268.027832,203.873947 269.173157,201.000061 275.731140,197.993759 
	C277.833679,197.393738 279.584717,196.871399 281.915894,196.095352 
	C282.975037,195.493958 283.454010,195.146255 283.932983,194.798584 
	C283.932983,194.798584 284.316986,194.654800 284.744446,194.526138 
	C285.477142,194.274490 285.728363,194.081299 285.925537,193.817886 
	C286.794708,193.416489 287.663879,193.015091 289.128113,192.440262 
	C290.302795,191.932648 290.882446,191.598450 291.462067,191.264252 
	C291.462067,191.264252 291.667114,191.243011 292.131073,191.194122 
	C293.493011,190.789139 294.390961,190.433060 295.288940,190.076996 
	C295.288940,190.076996 295.576416,190.017120 296.106873,190.000565 
	C298.131622,189.686462 299.625946,189.388916 301.120270,189.091370 
	C307.735260,190.194717 314.350220,191.298065 321.237732,192.679291 
	C319.139252,193.677689 316.768280,194.398239 313.964569,195.056961 
z"/>
<path fill="#AC1426" opacity="1.000000" stroke="none" 
	d="
M258.873657,209.999390 
	C255.956772,214.633636 253.336548,219.093918 250.627960,223.704605 
	C249.233307,217.383301 247.242172,210.568695 239.358765,207.498032 
	C246.766327,207.498032 254.173889,207.498032 262.662231,207.498032 
	C260.950348,208.639038 260.060333,209.232224 258.873657,209.999390 
z"/>
<path fill="#1F1214" opacity="1.000000" stroke="none" 
	d="
M183.879150,191.630630 
	C184.369064,191.435806 184.858994,191.240997 185.914734,191.022064 
	C187.020218,190.759079 187.559860,190.520233 188.099503,190.281387 
	C188.457474,190.180954 188.815430,190.080505 189.945038,190.023468 
	C195.600067,190.024384 200.483444,189.981918 205.366837,189.939468 
	C205.717361,189.971848 206.067902,190.004227 206.895813,190.327515 
	C207.939362,190.753448 208.505524,190.888474 209.071671,191.023468 
	C209.504807,191.116852 209.937943,191.210220 210.826416,191.560852 
	C211.511490,191.957657 211.760712,192.024231 212.029449,192.017822 
	C215.683975,194.008987 219.338501,196.000153 223.546341,198.289551 
	C224.485458,198.745758 224.871246,198.903732 225.257034,199.061707 
	C225.257034,199.061707 225.367813,199.233246 225.600616,199.589111 
	C227.223755,201.273590 228.614059,202.602234 230.004379,203.930878 
	C230.255325,203.689407 230.506271,203.447952 230.757217,203.206497 
	C230.201569,201.770126 229.645920,200.333755 229.090286,198.897385 
	C233.023300,201.255524 234.701645,204.322006 232.070160,209.062012 
	C224.779190,202.367279 216.855499,196.527573 206.174622,193.810181 
	C204.296463,193.336609 203.093979,193.155167 201.891495,192.973724 
	C200.524124,192.884583 199.156769,192.795471 197.090195,192.493958 
	C194.923950,192.368607 193.456909,192.455673 191.989868,192.542740 
	C190.849152,192.821960 189.708435,193.101196 188.406036,193.692963 
	C187.685059,194.007141 187.125778,194.008759 185.944916,193.916336 
	C184.938644,193.603943 184.553970,193.385605 184.169296,193.167267 
	C184.169296,193.167267 184.022232,193.047150 183.961319,192.655518 
	C183.893311,192.052795 183.886230,191.841705 183.879150,191.630630 
z"/>
<path fill="#B40F23" opacity="1.000000" stroke="none" 
	d="
M160.981277,121.490814 
	C160.981277,121.490822 160.972534,121.516418 160.862900,121.860535 
	C159.282257,122.580566 157.787582,123.341812 156.345078,123.253250 
	C153.214874,123.061081 150.111298,122.434616 146.996841,121.985718 
	C146.996841,121.985718 146.997528,122.006340 146.803101,121.774971 
	C146.251312,121.357750 145.893951,121.171890 145.536575,120.986038 
	C145.536575,120.986038 145.507111,120.994560 145.496445,120.594635 
	C145.574646,118.640640 145.663513,117.086571 145.752380,115.532509 
	C145.752380,115.532509 145.825256,115.386887 146.083466,115.144508 
	C146.509598,114.582458 146.677551,114.262787 146.845490,113.943115 
	C146.845490,113.943115 146.857513,113.887215 147.064667,113.757164 
	C147.502274,113.434143 147.650757,113.191086 147.717224,112.897957 
	C147.717224,112.897957 147.792587,112.800667 148.080872,112.621506 
	C148.574142,112.136421 148.779129,111.830513 148.984116,111.524597 
	C148.984116,111.524597 149.020187,111.525490 149.339554,111.356049 
	C149.956604,110.826035 150.254288,110.465462 150.551971,110.104889 
	C150.551971,110.104889 150.592026,110.153526 150.956528,110.101868 
	C151.873764,109.691826 152.426498,109.333458 152.979233,108.975098 
	C152.979233,108.975098 152.998383,108.994720 153.282547,108.966904 
	C154.028549,108.613380 154.490402,108.287682 154.952255,107.961975 
	C154.952255,107.961983 154.973495,107.953094 155.260834,107.908997 
	C155.999832,107.544418 156.451492,107.223938 156.903137,106.903458 
	C156.903137,106.903458 156.927643,106.892555 157.270081,106.819077 
	C159.478485,106.506454 161.344452,106.267311 163.210419,106.028175 
	C163.210419,106.028175 163.138550,106.082520 162.891418,106.203850 
	C162.386795,106.512703 162.207764,106.757591 162.107208,107.059860 
	C162.107208,107.059860 162.093338,107.089233 161.881592,107.207489 
	C161.430725,107.529083 161.279068,107.784378 161.214890,108.091644 
	C161.214890,108.091644 161.174194,108.155418 160.910004,108.331314 
	C160.453049,108.826942 160.260300,109.146667 160.067551,109.466385 
	C160.067551,109.466385 160.028946,109.501076 159.747620,109.775879 
	C159.290512,110.502747 159.114731,110.954803 158.938950,111.406868 
	C158.741913,111.587273 158.590637,111.800186 158.201080,112.461029 
	C158.111984,114.443085 158.306900,116.009735 158.501831,117.576385 
	C158.501831,117.576385 158.569748,117.760483 158.716370,118.165024 
	C159.179260,118.900200 159.495514,119.230827 159.811768,119.561462 
	C159.811768,119.561462 159.792358,119.650459 159.924072,120.021393 
	C160.364273,120.758499 160.672775,121.124657 160.981277,121.490814 
z"/>
<path fill="#AC1426" opacity="1.000000" stroke="none" 
	d="
M219.913940,273.190552 
	C223.444199,273.872589 226.716339,274.426147 229.928650,275.221344 
	C233.998795,276.228973 238.130402,281.846069 238.371521,285.631470 
	C234.670502,284.794281 230.311508,284.741913 227.061234,282.817230 
	C223.632095,280.786621 221.260773,276.969513 218.427322,273.932892 
	C218.827957,273.678375 219.228592,273.423889 219.913940,273.190552 
z"/>
<path fill="#461D22" opacity="1.000000" stroke="none" 
	d="
M172.696121,178.688095 
	C171.034546,179.083267 169.372971,179.478424 167.345947,179.904633 
	C169.038132,178.721375 171.095795,177.507065 172.306778,176.792404 
	C172.416748,174.563065 172.504211,172.790314 172.846619,170.786285 
	C174.189163,171.678268 175.246811,173.724319 176.369629,173.760727 
	C180.616699,173.898422 184.884918,173.384094 189.553635,173.036896 
	C189.280823,173.800964 188.599609,174.641861 187.837708,175.582336 
	C189.634552,176.121933 191.200806,176.592270 192.703705,177.413147 
	C192.428024,177.869064 192.215698,177.974442 192.003357,178.079819 
	C191.571014,178.036194 191.138657,177.992554 190.008041,177.759918 
	C185.536942,177.684570 181.764114,177.798203 177.991287,177.911835 
	C177.569382,177.955612 177.147476,177.999405 176.061096,178.051727 
	C174.496460,178.269547 173.596298,178.478821 172.696121,178.688095 
z"/>
<path fill="#B40F23" opacity="1.000000" stroke="none" 
	d="
M318.407867,174.020081 
	C321.281342,173.486588 324.521332,173.121826 328.154114,172.712830 
	C325.508545,164.022049 320.841522,155.508942 326.852112,146.285919 
	C323.150604,155.902420 325.900269,165.014404 331.749176,175.119415 
	C326.392181,174.735168 322.583252,174.461975 318.407867,174.020081 
z"/>
<path fill="#461D22" opacity="1.000000" stroke="none" 
	d="
M147.127045,122.185577 
	C150.111298,122.434616 153.214874,123.061081 156.345078,123.253250 
	C157.787582,123.341812 159.282257,122.580566 160.875305,121.866089 
	C162.918747,123.745094 164.840179,125.962639 166.907623,128.465057 
	C163.356750,127.778915 159.683868,126.688309 155.942780,125.937515 
	C155.191940,125.786827 154.181763,126.928558 153.402649,127.722443 
	C149.663605,128.086014 147.883270,125.882309 147.127045,122.185577 
z"/>
<path fill="#8D202E" opacity="1.000000" stroke="none" 
	d="
M334.820740,179.691086 
	C324.140350,177.179260 313.257874,177.393967 301.923523,179.993927 
	C312.437592,175.119720 323.485992,174.909348 334.820740,179.691086 
z"/>
<path fill="#B40F23" opacity="1.000000" stroke="none" 
	d="
M314.670166,150.195221 
	C314.620209,157.604050 314.308960,165.238602 314.042816,173.274887 
	C313.190918,171.540543 311.388275,169.323761 311.570068,167.283829 
	C312.074493,161.623489 313.404877,156.036743 314.670166,150.195221 
z"/>
<path fill="#8D202E" opacity="1.000000" stroke="none" 
	d="
M228.893875,198.633606 
	C229.645920,200.333755 230.201569,201.770126 230.757217,203.206497 
	C230.506271,203.447952 230.255325,203.689407 230.004379,203.930878 
	C228.614059,202.602234 227.223755,201.273590 225.687958,199.641998 
	C224.059265,196.815079 222.576050,194.291107 221.014130,191.445648 
	C223.522766,193.539398 226.110107,195.954620 228.893875,198.633606 
z"/>
<path fill="#461D22" opacity="1.000000" stroke="none" 
	d="
M163.514374,105.967018 
	C161.344452,106.267311 159.478485,106.506454 157.279465,106.809486 
	C159.955017,104.942314 162.963608,103.011253 165.972214,101.080193 
	C166.368530,101.576309 166.764847,102.072426 167.161163,102.568542 
	C166.046890,103.680977 164.932602,104.793419 163.514374,105.967018 
z"/>
<path fill="#2D181A" opacity="1.000000" stroke="none" 
	d="
M276.169495,231.306976 
	C277.213715,229.751480 278.414215,228.478760 279.820007,226.897415 
	C280.907898,228.202866 281.790497,229.816956 282.823303,231.733017 
	C281.244568,233.462143 279.515594,234.889282 277.460083,236.464294 
	C276.864258,234.938034 276.595032,233.263885 276.169495,231.306976 
z"/>
<path fill="#8D202E" opacity="1.000000" stroke="none" 
	d="
M301.065643,179.941833 
	C297.556580,181.944778 293.622070,183.920837 289.325684,185.930771 
	C292.855927,183.948074 296.748047,181.931519 301.065643,179.941833 
z"/>
<path fill="#461D22" opacity="1.000000" stroke="none" 
	d="
M190.230988,172.663452 
	C189.875946,166.636063 189.796158,160.289902 189.800781,153.478821 
	C190.092194,159.457489 190.299210,165.901077 190.230988,172.663452 
z"/>
<path fill="#2D181A" opacity="1.000000" stroke="none" 
	d="
M270.438904,209.821335 
	C270.645172,214.448959 270.532166,219.289719 270.456940,224.551117 
	C266.983765,220.259232 266.859314,215.304489 270.438904,209.821335 
z"/>
<path fill="#461D22" opacity="1.000000" stroke="none" 
	d="
M173.214371,143.811813 
	C174.564362,146.886978 175.991226,150.354141 177.249878,154.148041 
	C175.818207,151.051102 174.554733,147.627457 173.214371,143.811813 
z"/>
<path fill="#2D181A" opacity="1.000000" stroke="none" 
	d="
M302.697632,198.572525 
	C305.712921,197.349625 309.144958,196.117111 313.018433,194.946564 
	C310.011353,196.193329 306.562866,197.378128 302.697632,198.572525 
z"/>
<path fill="#461D22" opacity="1.000000" stroke="none" 
	d="
M176.919769,158.887024 
	C176.357117,161.632965 175.642563,164.736862 174.644241,168.024597 
	C175.162933,165.220596 175.965393,162.232803 176.919769,158.887024 
z"/>
<path fill="#2D181A" opacity="1.000000" stroke="none" 
	d="
M315.840027,261.727386 
	C314.173798,260.625977 312.401642,259.198029 310.518250,257.428955 
	C312.182678,258.525513 313.958405,259.963165 315.840027,261.727386 
z"/>
<path fill="#2D181A" opacity="1.000000" stroke="none" 
	d="
M280.348022,226.228882 
	C281.018555,223.875793 281.977783,221.288971 283.229370,218.483063 
	C282.560089,220.841049 281.598419,223.418106 280.348022,226.228882 
z"/>
<path fill="#2D181A" opacity="1.000000" stroke="none" 
	d="
M293.859985,241.716034 
	C292.123413,240.534485 290.280670,239.038132 288.313965,237.243927 
	C290.044586,238.431122 291.899170,239.916183 293.859985,241.716034 
z"/>
<path fill="#2D181A" opacity="1.000000" stroke="none" 
	d="
M306.884399,253.680450 
	C305.320374,252.580948 303.671661,251.159241 301.964874,249.407715 
	C303.537750,250.504684 305.168701,251.931458 306.884399,253.680450 
z"/>
<path fill="#8D202E" opacity="1.000000" stroke="none" 
	d="
M213.886871,185.670715 
	C212.084915,184.927734 210.140991,183.889938 208.053741,182.562103 
	C209.855240,183.306686 211.800079,184.341293 213.886871,185.670715 
z"/>
<path fill="#461D22" opacity="1.000000" stroke="none" 
	d="
M171.045822,193.391541 
	C173.171844,193.365356 175.378845,193.663086 178.034546,193.965424 
	C175.963333,195.843689 173.488480,196.414795 171.045822,193.391541 
z"/>
<path fill="#B40F23" opacity="1.000000" stroke="none" 
	d="
M327.388367,145.952316 
	C328.090271,144.515747 329.076111,142.938217 330.342773,141.263199 
	C329.639801,142.714264 328.656067,144.262817 327.388367,145.952316 
z"/>
<path fill="#461D22" opacity="1.000000" stroke="none" 
	d="
M166.259705,181.282364 
	C166.284912,182.965027 166.310120,184.647690 166.341919,186.772278 
	C164.280823,185.139664 163.486420,182.934525 165.944641,180.552139 
	C166.244614,180.879791 166.252151,181.081085 166.259705,181.282364 
z"/>
<path fill="#B40F23" opacity="1.000000" stroke="none" 
	d="
M322.569366,137.849197 
	C321.854401,139.065186 320.894318,140.362610 319.671417,141.742279 
	C320.380493,140.526535 321.352356,139.228592 322.569366,137.849197 
z"/>
<path fill="#B40F23" opacity="1.000000" stroke="none" 
	d="
M327.799377,133.231323 
	C326.838837,134.322968 325.572327,135.487900 324.042725,136.693970 
	C325.017578,135.591599 326.255493,134.448105 327.799377,133.231323 
z"/>
<path fill="#461D22" opacity="1.000000" stroke="none" 
	d="
M166.475647,187.644867 
	C167.570496,188.641571 168.718048,189.991730 169.928375,191.666077 
	C168.836868,190.659637 167.682602,189.328979 166.475647,187.644867 
z"/>
<path fill="#8D202E" opacity="1.000000" stroke="none" 
	d="
M336.815735,184.744049 
	C336.316345,183.415726 335.816925,182.087402 335.165833,180.361603 
	C335.947876,180.990921 336.881592,182.017700 337.676575,183.546219 
	C337.297150,184.279984 337.056458,184.512024 336.815735,184.744049 
z"/>
<path fill="#461D22" opacity="1.000000" stroke="none" 
	d="
M158.531967,117.060577 
	C158.306900,116.009735 158.111984,114.443085 158.147247,112.650543 
	C158.439011,113.798019 158.500565,115.171402 158.531967,117.060577 
z"/>
<path fill="#2D181A" opacity="1.000000" stroke="none" 
	d="
M271.942383,227.414368 
	C273.134918,228.206848 274.392487,229.331238 275.810608,230.727356 
	C274.649902,229.914825 273.328674,228.830536 271.942383,227.414368 
z"/>
<path fill="#461D22" opacity="1.000000" stroke="none" 
	d="
M202.230286,179.674469 
	C201.710358,179.885818 200.925751,179.827545 199.547974,179.564240 
	C198.625687,179.252991 198.296539,179.146759 197.967407,179.040512 
	C197.967407,179.040512 197.992554,179.041718 197.921021,178.811279 
	C197.849472,178.580856 197.758789,178.100189 197.758789,178.100189 
	C199.161057,178.535065 200.563324,178.969940 202.230286,179.674469 
z"/>
<path fill="#461D22" opacity="1.000000" stroke="none" 
	d="
M189.895325,152.704956 
	C189.166229,151.528259 188.469894,149.982941 187.796234,148.042572 
	C188.521973,149.210464 189.225021,150.773407 189.895325,152.704956 
z"/>
<path fill="#461D22" opacity="1.000000" stroke="none" 
	d="
M183.502197,191.640976 
	C183.886230,191.841705 183.893311,192.052795 183.904144,192.579712 
	C182.369415,193.250626 180.830917,193.605713 178.889771,193.964020 
	C180.033157,193.195251 181.579208,192.423294 183.502197,191.640976 
z"/>
<path fill="#2D181A" opacity="1.000000" stroke="none" 
	d="
M324.315979,194.241577 
	C326.053528,193.982681 328.078888,193.967239 330.541504,193.955414 
	C328.853729,194.134338 326.728760,194.309677 324.315979,194.241577 
z"/>
<path fill="#2D181A" opacity="1.000000" stroke="none" 
	d="
M333.311584,191.846283 
	C333.711761,190.845810 334.433960,189.725616 335.474091,188.467285 
	C335.072571,189.461624 334.353088,190.594116 333.311584,191.846283 
z"/>
<path fill="#8D202E" opacity="1.000000" stroke="none" 
	d="
M207.565384,181.993011 
	C206.640411,181.948288 205.531143,181.680771 204.256363,181.015869 
	C204.090836,180.618484 204.328445,180.186798 204.328445,180.186798 
	C205.346008,180.714600 206.363556,181.242401 207.565384,181.993011 
z"/>
<path fill="#2D181A" opacity="1.000000" stroke="none" 
	d="
M336.695496,185.100403 
	C337.056458,184.512024 337.297150,184.279984 337.716248,183.870300 
	C337.378387,185.087448 336.862122,186.482269 336.073273,188.150940 
	C336.058899,187.435440 336.317078,186.446091 336.695496,185.100403 
z"/>
<path fill="#8D202E" opacity="1.000000" stroke="none" 
	d="
M197.616730,178.051880 
	C197.758789,178.100189 197.849472,178.580856 197.905441,178.819016 
	C196.203308,178.831863 194.445206,178.606567 192.345230,178.230545 
	C192.215698,177.974442 192.428024,177.869064 192.959167,177.602951 
	C193.897736,177.512405 194.517471,177.582626 195.800079,177.781403 
	C196.703140,177.917023 196.943314,177.924103 197.183487,177.931168 
	C197.183487,177.931168 197.474686,178.003555 197.616730,178.051880 
z"/>
<path fill="#461D22" opacity="1.000000" stroke="none" 
	d="
M145.470337,115.751831 
	C145.663513,117.086571 145.574646,118.640640 145.507721,120.583366 
	C145.415878,119.305077 145.302078,117.638115 145.470337,115.751831 
z"/>
<path fill="#B40F23" opacity="1.000000" stroke="none" 
	d="
M317.707245,144.010345 
	C317.485748,144.836121 317.044159,145.789902 316.370514,146.910675 
	C316.588013,146.097900 317.037567,145.118134 317.707245,144.010345 
z"/>
<path fill="#461D22" opacity="1.000000" stroke="none" 
	d="
M158.065598,130.460220 
	C158.827637,130.622757 159.735214,131.063431 160.806152,131.767639 
	C160.050064,131.600250 159.130600,131.169296 158.065598,130.460220 
z"/>
<path fill="#B40F23" opacity="1.000000" stroke="none" 
	d="
M330.500366,131.290253 
	C330.212830,131.741318 329.635376,132.239120 328.774750,132.837418 
	C329.064545,132.404282 329.637512,131.870651 330.500366,131.290253 
z"/>
<path fill="#461D22" opacity="1.000000" stroke="none" 
	d="
M161.149124,132.324890 
	C161.747833,132.449615 162.509705,132.859894 163.426636,133.572357 
	C162.825241,133.453171 162.068771,133.031799 161.149124,132.324890 
z"/>
<path fill="#2D181A" opacity="1.000000" stroke="none" 
	d="
M301.798615,248.825165 
	C301.090729,248.574387 300.236664,248.049240 299.241638,247.243546 
	C299.951263,247.492264 300.801849,248.021515 301.798615,248.825165 
z"/>
<path fill="#461D22" opacity="1.000000" stroke="none" 
	d="
M187.743088,147.269714 
	C187.264877,146.936768 186.730804,146.274857 186.140289,145.295074 
	C186.618301,145.631714 187.152771,146.286240 187.743088,147.269714 
z"/>
<path fill="#B40F23" opacity="1.000000" stroke="none" 
	d="
M331.383820,140.374573 
	C331.632172,139.770493 332.118134,139.062653 332.830139,138.200073 
	C332.577911,138.787170 332.099670,139.529007 331.383820,140.374573 
z"/>
<path fill="#461D22" opacity="1.000000" stroke="none" 
	d="
M184.243881,193.322174 
	C184.553970,193.385605 184.938644,193.603943 185.526489,193.909271 
	C185.259247,193.823181 184.788864,193.650116 184.243881,193.322174 
z"/>
<path fill="#461D22" opacity="1.000000" stroke="none" 
	d="
M170.149445,129.879501 
	C169.532486,129.837906 168.634186,129.568329 167.469315,129.063934 
	C168.091187,129.103256 168.979660,129.377380 170.149445,129.879501 
z"/>
<path fill="#461D22" opacity="1.000000" stroke="none" 
	d="
M156.125656,129.328125 
	C156.485596,129.291031 156.986893,129.508362 157.673401,129.936340 
	C157.328079,129.958832 156.797546,129.770676 156.125656,129.328125 
z"/>
<path fill="#461D22" opacity="1.000000" stroke="none" 
	d="
M156.611542,106.908920 
	C156.451492,107.223938 155.999832,107.544418 155.269760,107.901718 
	C155.434219,107.597153 155.877090,107.255768 156.611542,106.908920 
z"/>
<path fill="#461D22" opacity="1.000000" stroke="none" 
	d="
M154.661163,107.973526 
	C154.490402,108.287682 154.028549,108.613380 153.278168,108.952866 
	C153.449783,108.639458 153.909927,108.312263 154.661163,107.973526 
z"/>
<path fill="#2D181A" opacity="1.000000" stroke="none" 
	d="
M285.081055,215.705719 
	C285.046082,215.301788 285.237305,214.637390 285.701904,213.741470 
	C285.752594,214.155045 285.529938,214.800171 285.081055,215.705719 
z"/>
<path fill="#2D181A" opacity="1.000000" stroke="none" 
	d="
M321.785492,193.190918 
	C322.183105,193.137970 322.844513,193.306122 323.743347,193.726776 
	C323.336945,193.790207 322.693146,193.601105 321.785492,193.190918 
z"/>
<path fill="#461D22" opacity="1.000000" stroke="none" 
	d="
M152.647186,109.003632 
	C152.426498,109.333458 151.873764,109.691826 150.980011,110.080856 
	C151.197693,109.751724 151.756409,109.391945 152.647186,109.003632 
z"/>
<path fill="#2D181A" opacity="1.000000" stroke="none" 
	d="
M296.422791,202.010361 
	C296.569000,201.685989 296.991852,201.331268 297.698334,200.968384 
	C297.554474,201.300156 297.126923,201.640076 296.422791,202.010361 
z"/>
<path fill="#2D181A" opacity="1.000000" stroke="none" 
	d="
M298.263763,200.925507 
	C298.436768,200.595947 298.899231,200.227142 299.668213,199.883316 
	C299.500885,200.234283 299.027039,200.560272 298.263763,200.925507 
z"/>
<path fill="#2D181A" opacity="1.000000" stroke="none" 
	d="
M300.267578,199.854279 
	C300.477753,199.503189 301.016815,199.068954 301.925232,198.632462 
	C301.728546,199.010513 301.162537,199.390839 300.267578,199.854279 
z"/>
<path fill="#8D202E" opacity="1.000000" stroke="none" 
	d="
M218.562714,188.919495 
	C218.218719,188.927719 217.748489,188.691818 217.143250,188.220184 
	C217.484329,188.214767 217.960419,188.445068 218.562714,188.919495 
z"/>
<path fill="#461D22" opacity="1.000000" stroke="none" 
	d="
M153.758514,128.229309 
	C154.161240,128.179230 154.804703,128.380524 155.697968,128.813934 
	C155.298264,128.857590 154.648758,128.669113 153.758514,128.229309 
z"/>
<path fill="#8D202E" opacity="1.000000" stroke="none" 
	d="
M216.860931,187.719452 
	C216.487900,187.751617 215.964447,187.516403 215.247574,187.060699 
	C215.606262,187.044174 216.158386,187.248108 216.860931,187.719452 
z"/>
<path fill="#8D202E" opacity="1.000000" stroke="none" 
	d="
M288.688904,185.939407 
	C288.531403,186.293777 288.074493,186.634689 287.325928,186.994766 
	C287.486023,186.651276 287.937744,186.288605 288.688904,185.939407 
z"/>
<path fill="#461D22" opacity="1.000000" stroke="none" 
	d="
M174.089371,168.433807 
	C174.109161,168.842422 173.887955,169.491959 173.372894,170.342392 
	C173.335495,169.920441 173.591934,169.297577 174.089371,168.433807 
z"/>
<path fill="#B40F23" opacity="1.000000" stroke="none" 
	d="
M315.620911,147.897934 
	C315.663391,148.267654 315.459167,148.857452 315.097656,149.718613 
	C315.085022,149.365982 315.229614,148.742004 315.620911,147.897934 
z"/>
<path fill="#B40F23" opacity="1.000000" stroke="none" 
	d="
M334.256775,137.073212 
	C334.348846,136.813873 334.665955,136.560730 335.163818,136.249237 
	C335.057007,136.487061 334.769379,136.783218 334.256775,137.073212 
z"/>
<path fill="#2D181A" opacity="1.000000" stroke="none" 
	d="
M287.899719,236.519608 
	C287.700317,236.552338 287.400238,236.324631 287.030090,235.816071 
	C287.239716,235.776550 287.519379,236.017868 287.899719,236.519608 
z"/>
<path fill="#2D181A" opacity="1.000000" stroke="none" 
	d="
M287.445862,211.224213 
	C287.268433,211.016052 287.405548,210.734192 287.844910,210.373291 
	C288.034271,210.582962 287.905365,210.868393 287.445862,211.224213 
z"/>
<path fill="#2D181A" opacity="1.000000" stroke="none" 
	d="
M286.281067,234.811401 
	C286.101776,234.877457 285.735199,234.706924 285.208313,234.270660 
	C285.396545,234.194901 285.745178,234.384857 286.281067,234.811401 
z"/>
<path fill="#2D181A" opacity="1.000000" stroke="none" 
	d="
M284.895874,233.739685 
	C284.632385,233.952515 284.351074,233.801376 284.079956,233.264694 
	C284.337646,233.090424 284.600281,233.255951 284.895874,233.739685 
z"/>
<path fill="#2D181A" opacity="1.000000" stroke="none" 
	d="
M283.875397,232.767990 
	C283.691162,232.830124 283.409302,232.670609 283.053131,232.271179 
	C283.312653,232.098297 283.578949,232.269989 283.875397,232.767990 
z"/>
<path fill="#461D22" opacity="1.000000" stroke="none" 
	d="
M182.888580,140.187195 
	C182.683945,140.202530 182.376648,139.928818 181.997192,139.350983 
	C182.212006,139.330612 182.498962,139.614365 182.888580,140.187195 
z"/>
<path fill="#461D22" opacity="1.000000" stroke="none" 
	d="
M183.963379,141.629959 
	C183.757568,141.645325 183.478424,141.366379 183.109375,140.800507 
	C183.309662,140.787613 183.599838,141.061630 183.963379,141.629959 
z"/>
<path fill="#461D22" opacity="1.000000" stroke="none" 
	d="
M171.972107,142.105728 
	C172.174622,142.102737 172.541550,142.405807 172.995987,143.066193 
	C172.767822,143.086273 172.452179,142.749039 171.972107,142.105728 
z"/>
<path fill="#461D22" opacity="1.000000" stroke="none" 
	d="
M184.998077,143.078278 
	C184.795273,143.092941 184.534042,142.811584 184.178284,142.258026 
	C184.369049,142.251312 184.654358,142.516785 184.998077,143.078278 
z"/>
<path fill="#2D181A" opacity="1.000000" stroke="none" 
	d="
M284.127625,217.238464 
	C284.057709,217.054825 284.199890,216.640854 284.640350,216.073776 
	C284.738983,216.283173 284.539337,216.645645 284.127625,217.238464 
z"/>
<path fill="#B40F23" opacity="1.000000" stroke="none" 
	d="
M318.732666,142.537292 
	C318.789093,142.586014 318.744598,142.704193 318.710999,142.705200 
	C318.677429,142.706207 318.676239,142.488586 318.732666,142.537292 
z"/>
<path fill="#2D181A" opacity="1.000000" stroke="none" 
	d="
M286.244385,213.213257 
	C286.167389,213.032501 286.332245,212.600067 286.751465,211.924133 
	C286.832672,212.107635 286.659454,212.534622 286.244385,213.213257 
z"/>
<path fill="#461D22" opacity="1.000000" stroke="none" 
	d="
M162.338623,106.989159 
	C162.207764,106.757591 162.386795,106.512703 162.850372,106.222458 
	C163.035355,106.471840 162.873199,106.738083 162.338623,106.989159 
z"/>
<path fill="#2D181A" opacity="1.000000" stroke="none" 
	d="
M276.840485,236.814499 
	C276.925903,237.008911 276.778351,237.503357 276.330261,238.254227 
	C276.222321,238.045258 276.414917,237.579895 276.840485,236.814499 
z"/>
<path fill="#461D22" opacity="1.000000" stroke="none" 
	d="
M181.801941,138.814362 
	C181.609024,138.852448 181.272675,138.633865 180.841202,138.116211 
	C181.050232,138.063980 181.354355,138.310822 181.801941,138.814362 
z"/>
<path fill="#2D181A" opacity="1.000000" stroke="none" 
	d="
M275.744293,238.753128 
	C275.788971,238.969879 275.557709,239.414154 274.960846,239.982651 
	C274.886261,239.731476 275.177307,239.356064 275.744293,238.753128 
z"/>
<path fill="#2D181A" opacity="1.000000" stroke="none" 
	d="
M294.897522,242.896622 
	C294.703674,242.943085 294.411743,242.745239 294.045837,242.288116 
	C294.247742,242.236649 294.523560,242.444489 294.897522,242.896622 
z"/>
<path fill="#2D181A" opacity="1.000000" stroke="none" 
	d="
M297.891174,245.707764 
	C297.712280,245.770233 297.429535,245.605072 297.044556,245.209076 
	C297.223969,245.145538 297.505646,245.312836 297.891174,245.707764 
z"/>
<path fill="#2D181A" opacity="1.000000" stroke="none" 
	d="
M298.924988,246.687653 
	C298.671204,246.885422 298.402802,246.735519 298.136261,246.225525 
	C298.387695,246.048584 298.645081,246.206772 298.924988,246.687653 
z"/>
<path fill="#B40F23" opacity="1.000000" stroke="none" 
	d="
M333.298065,137.988968 
	C333.225372,137.786911 333.438385,137.549240 333.865356,137.185608 
	C333.887573,137.333725 333.722351,137.631638 333.298065,137.988968 
z"/>
<path fill="#2D181A" opacity="1.000000" stroke="none" 
	d="
M307.882324,254.761322 
	C307.698029,254.823730 307.415314,254.668259 307.065247,254.271484 
	C307.325897,254.100204 307.587891,254.271286 307.882324,254.761322 
z"/>
<path fill="#2D181A" opacity="1.000000" stroke="none" 
	d="
M308.905823,255.726440 
	C308.647369,255.917664 308.378601,255.758224 308.105103,255.243256 
	C308.358673,255.065659 308.623749,255.228348 308.905823,255.726440 
z"/>
<path fill="#2D181A" opacity="1.000000" stroke="none" 
	d="
M310.275360,256.841797 
	C310.094604,256.905853 309.721405,256.737549 309.199951,256.290100 
	C309.395477,256.210419 309.739166,256.409973 310.275360,256.841797 
z"/>
<path fill="#461D22" opacity="1.000000" stroke="none" 
	d="
M163.809692,134.180374 
	C164.006241,134.136612 164.426544,134.360428 165.011475,134.910461 
	C164.795212,134.973755 164.414322,134.710861 163.809692,134.180374 
z"/>
<path fill="#2D181A" opacity="1.000000" stroke="none" 
	d="
M317.210327,262.914642 
	C317.021240,262.979431 316.617371,262.823730 316.086304,262.355194 
	C316.304565,262.259613 316.650055,262.476868 317.210327,262.914642 
z"/>
<path fill="#461D22" opacity="1.000000" stroke="none" 
	d="
M161.432434,108.005310 
	C161.279068,107.784378 161.430725,107.529083 161.866882,107.214386 
	C162.046967,107.436417 161.908997,107.708405 161.432434,108.005310 
z"/>
<path fill="#8D202E" opacity="1.000000" stroke="none" 
	d="
M219.743317,189.883392 
	C219.522614,190.075470 219.277878,189.957016 219.007568,189.531052 
	C219.231140,189.330276 219.476898,189.446716 219.743317,189.883392 
z"/>
<path fill="#2D181A" opacity="1.000000" stroke="none" 
	d="
M331.193665,193.872528 
	C331.136902,193.682480 331.307190,193.405228 331.721649,193.066269 
	C331.891724,193.339966 331.710052,193.600220 331.193665,193.872528 
z"/>
<path fill="#8D202E" opacity="1.000000" stroke="none" 
	d="
M220.795868,190.834320 
	C220.551529,191.009888 220.298187,190.856705 220.027008,190.382202 
	C220.274612,190.191864 220.533859,190.340088 220.795868,190.834320 
z"/>
<path fill="#8D202E" opacity="1.000000" stroke="none" 
	d="
M286.690674,187.101059 
	C286.688690,187.304184 286.386230,187.572754 285.781006,187.911926 
	C285.782257,187.710526 286.086273,187.438507 286.690674,187.101059 
z"/>
<path fill="#461D22" opacity="1.000000" stroke="none" 
	d="
M147.502808,112.974831 
	C147.650757,113.191086 147.502274,113.434143 147.083771,113.735901 
	C146.893311,113.514328 147.024185,113.250000 147.502808,112.974831 
z"/>
<path fill="#461D22" opacity="1.000000" stroke="none" 
	d="
M170.071350,192.249298 
	C170.351852,192.072266 170.612915,192.255051 170.860413,192.793091 
	C170.573929,192.984131 170.308960,192.804382 170.071350,192.249298 
z"/>
<path fill="#8D202E" opacity="1.000000" stroke="none" 
	d="
M215.071503,186.624573 
	C214.861877,186.721283 214.575684,186.553421 214.154053,186.173828 
	C214.344055,186.094742 214.669495,186.227371 215.071503,186.624573 
z"/>
<path fill="#2D181A" opacity="1.000000" stroke="none" 
	d="
M332.224731,192.872101 
	C332.163025,192.685425 332.322388,192.404846 332.723907,192.058502 
	C332.896149,192.323105 332.722717,192.584930 332.224731,192.872101 
z"/>
<path fill="#461D22" opacity="1.000000" stroke="none" 
	d="
M203.890411,180.077148 
	C204.328445,180.186798 204.090836,180.618484 203.964630,180.830536 
	C203.536057,180.822388 203.233704,180.602188 202.740326,180.171585 
	C202.850327,179.963303 203.151352,179.965408 203.890411,180.077148 
z"/>
<path fill="#8D202E" opacity="1.000000" stroke="none" 
	d="
M166.439407,181.115234 
	C166.252151,181.081085 166.244614,180.879791 166.233597,180.375504 
	C166.230133,180.072495 166.626465,179.996979 166.824768,180.033997 
	C166.976654,180.403976 166.842010,180.696335 166.439407,181.115234 
z"/>
<path fill="#461D22" opacity="1.000000" stroke="none" 
	d="
M148.729645,111.654968 
	C148.779129,111.830513 148.574142,112.136421 148.134033,112.590523 
	C148.091003,112.420914 148.283096,112.103119 148.729645,111.654968 
z"/>
<path fill="#461D22" opacity="1.000000" stroke="none" 
	d="
M159.183075,111.137451 
	C159.114731,110.954803 159.290512,110.502747 159.735168,109.798645 
	C159.811768,109.987083 159.619492,110.427559 159.183075,111.137451 
z"/>
<path fill="#461D22" opacity="1.000000" stroke="none" 
	d="
M146.604614,114.088051 
	C146.677551,114.262787 146.509598,114.582458 146.123566,115.073654 
	C146.058228,114.907776 146.210968,114.570374 146.604614,114.088051 
z"/>
<path fill="#461D22" opacity="1.000000" stroke="none" 
	d="
M185.992798,144.637054 
	C185.787430,144.644287 185.532349,144.358459 185.196213,143.789703 
	C185.391144,143.785828 185.667130,144.064896 185.992798,144.637054 
z"/>
<path fill="#461D22" opacity="1.000000" stroke="none" 
	d="
M197.026382,177.818451 
	C196.943314,177.924103 196.703140,177.917023 196.109497,177.832214 
	C196.127136,177.738235 196.498199,177.721985 197.026382,177.818451 
z"/>
<path fill="#461D22" opacity="1.000000" stroke="none" 
	d="
M159.686935,119.248055 
	C159.495514,119.230827 159.179260,118.900200 158.795166,118.223488 
	C159.005585,118.229820 159.283844,118.582237 159.686935,119.248055 
z"/>
<path fill="#461D22" opacity="1.000000" stroke="none" 
	d="
M160.873352,121.148621 
	C160.672775,121.124657 160.364273,120.758499 159.967529,120.035019 
	C160.174667,120.053947 160.470047,120.430183 160.873352,121.148621 
z"/>
<path fill="#461D22" opacity="1.000000" stroke="none" 
	d="
M150.240982,110.270760 
	C150.254288,110.465462 149.956604,110.826035 149.338837,111.338028 
	C149.322510,111.138512 149.626251,110.787567 150.240982,110.270760 
z"/>
<path fill="#461D22" opacity="1.000000" stroke="none" 
	d="
M145.718536,121.239639 
	C145.893951,121.171890 146.251312,121.357750 146.812149,121.769592 
	C146.643906,121.828140 146.272202,121.660690 145.718536,121.239639 
z"/>
<path fill="#2D181A" opacity="1.000000" stroke="none" 
	d="
M295.256744,202.919739 
	C295.097198,202.658768 295.270325,202.418396 295.776245,202.202026 
	C295.936188,202.465164 295.762970,202.703278 295.256744,202.919739 
z"/>
<path fill="#2D181A" opacity="1.000000" stroke="none" 
	d="
M293.991760,203.901962 
	C293.969177,203.714264 294.202057,203.436661 294.703339,203.093658 
	C294.730255,203.289536 294.488770,203.550781 293.991760,203.901962 
z"/>
<path fill="#461D22" opacity="1.000000" stroke="none" 
	d="
M160.316833,109.320312 
	C160.260300,109.146667 160.453049,108.826942 160.876709,108.349274 
	C160.927109,108.518974 160.746613,108.846603 160.316833,109.320312 
z"/>
<path fill="#2D181A" opacity="1.000000" stroke="none" 
	d="
M289.304016,208.863586 
	C289.241882,208.692719 289.402069,208.396805 289.791962,207.981400 
	C289.856567,208.154114 289.691437,208.446320 289.304016,208.863586 
z"/>
<path fill="#2D181A" opacity="1.000000" stroke="none" 
	d="
M288.406494,209.925751 
	C288.222290,209.698364 288.355835,209.448059 288.806580,209.172714 
	C288.990417,209.398849 288.857208,209.650558 288.406494,209.925751 
z"/>
<path fill="#1F1214" opacity="1.000000" stroke="none" 
	d="
M277.736969,282.137939 
	C274.013153,282.745575 270.681885,283.278961 267.095093,283.853271 
	C270.581329,275.859833 275.987213,273.068390 285.887878,274.681244 
	C282.929749,277.496033 280.529633,279.779877 277.736969,282.137939 
z"/>
<path fill="#461D22" opacity="1.000000" stroke="none" 
	d="
M192.400604,192.629852 
	C193.456909,192.455673 194.923950,192.368607 196.687561,192.408890 
	C195.593216,192.596466 194.202286,192.656708 192.400604,192.629852 
z"/>
<path fill="#461D22" opacity="1.000000" stroke="none" 
	d="
M202.214569,193.152802 
	C203.093979,193.155167 204.296463,193.336609 205.824280,193.698090 
	C204.945633,193.696060 203.741623,193.513962 202.214569,193.152802 
z"/>
<path fill="#461D22" opacity="1.000000" stroke="none" 
	d="
M204.954224,189.775574 
	C200.483444,189.981918 195.600067,190.024384 190.224731,190.015060 
	C194.669052,189.846069 199.605331,189.728867 204.954224,189.775574 
z"/>
<path fill="#8D202E" opacity="1.000000" stroke="none" 
	d="
M178.449310,177.967865 
	C181.764114,177.798203 185.536942,177.684570 189.683609,177.729034 
	C186.340744,177.932739 182.624023,177.978317 178.449310,177.967865 
z"/>
<path fill="#8D202E" opacity="1.000000" stroke="none" 
	d="
M173.046722,178.709717 
	C173.596298,178.478821 174.496460,178.269547 175.745361,178.090790 
	C175.195160,178.324646 174.296234,178.527985 173.046722,178.709717 
z"/>
<path fill="#461D22" opacity="1.000000" stroke="none" 
	d="
M208.833679,190.851562 
	C208.505524,190.888474 207.939362,190.753448 207.137329,190.437531 
	C207.466202,190.397614 208.030945,190.538620 208.833679,190.851562 
z"/>
<path fill="#461D22" opacity="1.000000" stroke="none" 
	d="
M187.800598,190.282410 
	C187.559860,190.520233 187.020218,190.759079 186.179993,191.000595 
	C186.420181,190.763306 186.960922,190.523361 187.800598,190.282410 
z"/>
<path fill="#461D22" opacity="1.000000" stroke="none" 
	d="
M211.892181,191.869812 
	C211.760712,192.024231 211.511490,191.957657 211.131699,191.693741 
	C211.261337,191.508881 211.519104,191.559692 211.892181,191.869812 
z"/>
<path fill="#8D202E" opacity="1.000000" stroke="none" 
	d="
M198.177338,179.190628 
	C198.296539,179.146759 198.625687,179.252991 199.156555,179.529297 
	C199.034622,179.579819 198.710953,179.460281 198.177338,179.190628 
z"/>
<path fill="#8D202E" opacity="1.000000" stroke="none" 
	d="
M225.022247,198.852341 
	C224.871246,198.903732 224.485458,198.745758 223.870438,198.371674 
	C224.023300,198.318024 224.405396,198.480499 225.022247,198.852341 
z"/>
<path fill="#8D202E" opacity="1.000000" stroke="none" 
	d="
M300.733521,189.044800 
	C299.625946,189.388916 298.131622,189.686462 296.245819,189.953247 
	C297.351807,189.614395 298.849304,189.306320 300.733521,189.044800 
z"/>
<path fill="#8D202E" opacity="1.000000" stroke="none" 
	d="
M294.921326,190.083679 
	C294.390961,190.433060 293.493011,190.789139 292.223541,191.148544 
	C292.752594,190.798035 293.653137,190.444199 294.921326,190.083679 
z"/>
<path fill="#8D202E" opacity="1.000000" stroke="none" 
	d="
M283.638794,194.862885 
	C283.454010,195.146255 282.975037,195.493958 282.204590,195.908142 
	C282.390228,195.625488 282.867401,195.276337 283.638794,194.862885 
z"/>
<path fill="#8D202E" opacity="1.000000" stroke="none" 
	d="
M291.128479,191.322571 
	C290.882446,191.598450 290.302795,191.932648 289.388123,192.318268 
	C289.633667,192.040100 290.214264,191.710495 291.128479,191.322571 
z"/>
<path fill="#8D202E" opacity="1.000000" stroke="none" 
	d="
M285.688446,193.867340 
	C285.728363,194.081299 285.477142,194.274490 284.936890,194.455460 
	C284.885712,194.231674 285.135529,194.032791 285.688446,193.867340 
z"/>
<path fill="#BF0A1F" opacity="1.000000" stroke="none" 
	d="
M344.129456,130.205276 
	C343.518677,129.923477 342.957397,129.650040 342.396088,129.376587 
	C342.507812,129.196884 342.619537,129.017166 342.731262,128.837463 
	C343.134399,129.135803 343.537537,129.434143 344.075989,129.925568 
	C344.211243,130.118637 344.178955,130.213623 344.129456,130.205276 
z"/>
<path fill="#BF0A1F" opacity="1.000000" stroke="none" 
	d="
M347.504700,126.497116 
	C347.486816,126.500732 347.522583,126.493492 347.504700,126.497116 
z"/>
</svg>